<?xml version="1.0" standalone="no"?>
<!DOCTYPE svg PUBLIC "-//W3C//DTD SVG 20010904//EN"
 "http://www.w3.org/TR/2001/REC-SVG-20010904/DTD/svg10.dtd">
<svg version="1.0" xmlns="http://www.w3.org/2000/svg"
 width="1280.000000pt" height="1048.000000pt" viewBox="0 0 1280.000000 1048.000000"
 preserveAspectRatio="xMidYMid meet">
<metadata>
Created by potrace 1.15, written by Peter Selinger 2001-2017
</metadata>
<g transform="translate(0.000000,1048.000000) scale(0.100000,-0.100000)"
fill="#000000" stroke="none">
<path d="M3912 10464 c-34 -23 -39 -44 -56 -220 -9 -88 -18 -183 -22 -211 l-5
-53 -89 -60 c-54 -38 -92 -71 -99 -88 -6 -15 -12 -76 -13 -136 l-3 -110 90
-47 90 -48 -3 -68 c-2 -37 -15 -165 -28 -283 -22 -188 -25 -249 -22 -490 3
-265 2 -278 -20 -342 -13 -37 -41 -94 -62 -127 -37 -57 -40 -60 -68 -52 -16 5
-40 16 -53 24 -13 8 -43 17 -66 21 -42 6 -43 6 -121 -71 -43 -43 -91 -99 -105
-124 l-27 -47 -80 24 c-44 12 -100 26 -125 29 -43 7 -45 6 -45 -16 0 -34 -86
-126 -138 -149 -40 -18 -43 -18 -38 -2 15 52 26 149 21 183 -14 79 -60 75
-141 -15 -50 -54 -95 -140 -411 -771 -202 -404 -379 -769 -410 -849 -67 -171
-88 -232 -373 -1075 -237 -699 -260 -756 -310 -756 -75 0 -61 250 35 600 205
750 733 2027 1007 2433 52 77 116 132 154 132 30 0 73 53 125 155 49 98 51
142 5 164 -25 12 -37 11 -90 -3 -119 -33 -178 -86 -296 -261 -40 -59 -101
-140 -135 -180 -72 -82 -91 -118 -203 -375 -435 -1002 -658 -1638 -907 -2590
-99 -381 -108 -410 -231 -739 -176 -468 -217 -619 -218 -806 0 -76 4 -108 17
-132 32 -61 79 -68 148 -24 50 31 85 80 104 144 10 34 22 48 63 75 51 32 52
32 56 10 3 -13 23 -239 45 -503 34 -407 41 -537 45 -855 5 -312 11 -430 29
-535 2 -12 -58 -8 -153 11 -112 22 -210 73 -267 140 -64 74 -104 94 -191 94
-38 0 -71 -2 -74 -5 -4 -5 17 -126 37 -212 5 -19 1 -23 -21 -23 -14 0 -54 8
-89 17 -61 16 -64 16 -116 -4 l-54 -21 2 -67 c1 -57 8 -81 41 -149 87 -175
345 -391 510 -426 60 -13 144 0 174 27 16 14 33 14 215 -11 220 -29 247 -31
238 -15 -4 5 5 21 19 34 56 52 26 108 -113 215 -76 57 -177 157 -169 166 8 7
794 -300 918 -359 147 -69 210 -90 283 -91 53 -1 61 2 83 27 20 23 24 39 24
92 0 64 0 65 -39 89 -33 21 -81 74 -81 89 0 12 110 -17 147 -39 29 -17 57 -24
92 -24 l50 0 12 42 c35 132 -66 259 -303 378 -140 70 -376 149 -468 156 -55 5
-72 2 -110 -18 -25 -13 -51 -34 -58 -48 -20 -38 -10 -160 16 -201 36 -57 64
-111 60 -115 -10 -9 -281 77 -346 111 -23 11 -24 15 -26 171 -2 114 -11 206
-30 327 -15 92 -24 172 -21 177 3 5 31 18 63 30 31 12 65 29 76 38 23 21 49
72 41 80 -3 3 -39 -11 -81 -31 -41 -20 -76 -37 -78 -37 -1 0 -6 44 -9 98 -4
53 -18 189 -33 302 -21 167 -25 232 -21 350 4 147 9 171 57 276 13 27 31 78
41 114 18 64 68 128 89 115 13 -8 19 -78 35 -410 24 -496 45 -702 72 -712 8
-3 60 4 115 17 75 17 117 21 169 17 78 -7 104 -18 140 -61 25 -29 32 -31 105
-34 l79 -4 76 79 c102 107 138 119 323 108 265 -14 240 -10 248 -42 4 -15 15
-194 23 -398 12 -308 22 -432 58 -740 33 -278 49 -382 64 -416 l20 -46 59 12
59 12 25 67 25 68 51 -7 c28 -3 122 -22 210 -41 289 -64 315 -67 376 -55 31 7
64 18 74 25 17 13 17 15 1 39 -22 33 -73 64 -129 76 -25 6 -126 15 -224 20
-273 14 -314 36 -399 213 -36 74 -50 118 -61 190 -10 63 -24 420 -44 1128 -17
569 -30 1072 -30 1116 l0 82 114 228 c63 126 136 265 163 309 202 327 368 570
451 659 77 82 196 242 322 431 123 184 241 344 321 430 35 39 81 94 102 123
21 28 42 52 45 52 4 -1 185 -305 402 -676 217 -372 443 -752 502 -844 201
-317 307 -517 358 -678 l27 -84 -50 -46 c-58 -54 -86 -110 -87 -168 0 -22 15
-103 34 -180 38 -155 50 -238 66 -459 6 -82 31 -326 55 -541 61 -541 77 -760
73 -1001 -2 -111 -7 -205 -11 -210 -5 -4 -138 -7 -295 -5 -208 2 -302 -1 -342
-10 l-55 -13 -3 -42 c-5 -65 8 -80 75 -86 32 -2 114 -12 183 -22 117 -16 131
-16 220 -1 67 12 139 16 247 14 145 -3 153 -2 174 19 l22 21 -36 149 c-66 272
-84 409 -97 748 -10 245 -4 518 10 513 21 -8 268 -283 311 -345 45 -67 79 -98
155 -143 l31 -18 -13 -88 c-7 -49 -11 -90 -9 -92 2 -3 20 -1 39 2 53 10 146
78 234 171 l79 84 107 242 c59 133 103 246 99 250 -5 5 -51 26 -103 47 -55 22
-96 45 -98 54 -7 34 40 127 98 194 63 73 83 116 95 218 l7 55 -98 -6 c-92 -5
-101 -4 -127 17 -26 21 -66 88 -82 138 -5 19 5 38 51 99 49 64 101 169 89 181
-2 2 -54 15 -117 28 -69 15 -118 31 -125 41 -11 15 -17 14 -72 -6 -46 -17 -65
-19 -86 -11 -14 5 -41 10 -59 10 -29 0 -34 -4 -40 -31 -10 -50 -6 -119 9 -189
8 -36 14 -80 15 -98 0 -30 -2 -33 -22 -26 -137 42 -242 171 -283 346 -8 34
-13 63 -12 64 1 2 29 7 62 12 33 6 104 27 158 47 88 34 97 40 97 64 0 14 6 67
14 117 11 72 22 106 56 167 38 70 44 76 62 66 70 -38 169 -194 199 -316 9 -38
18 -53 33 -57 40 -9 246 -29 251 -24 12 12 25 119 25 207 0 109 -10 216 -41
450 l-22 164 -51 59 c-91 106 -88 96 -82 318 12 416 52 682 217 1430 76 342
115 498 159 630 96 288 239 613 334 760 41 63 41 61 20 -51 -17 -93 -31 -144
-109 -399 -74 -239 -88 -299 -134 -570 -99 -578 -163 -1044 -208 -1530 -13
-136 -17 -285 -17 -560 -1 -379 6 -467 45 -613 l10 -39 52 7 c80 11 154 43
236 101 7 6 40 326 65 639 75 918 109 1211 182 1545 41 188 66 271 250 840 13
41 68 221 123 400 159 521 416 1166 510 1279 27 33 28 34 54 16 28 -18 115
-122 137 -164 7 -14 18 -77 25 -140 14 -128 2 -109 131 -215 44 -37 63 -72
294 -540 266 -539 256 -510 205 -566 -12 -14 -25 -40 -29 -59 -5 -30 7 -58
113 -250 66 -119 155 -286 199 -372 44 -87 122 -226 173 -310 51 -85 137 -248
191 -363 168 -358 248 -496 337 -579 62 -58 87 -61 97 -12 9 50 -1 91 -46 183
-21 45 -46 105 -55 134 -13 45 -75 309 -75 322 0 2 15 -1 34 -6 27 -9 36 -17
40 -42 4 -17 26 -62 51 -99 24 -38 45 -73 48 -80 6 -19 73 30 87 64 22 52 7
155 -40 271 -142 351 -184 497 -149 519 21 13 20 13 68 -53 86 -118 286 -669
351 -967 11 -47 17 -87 15 -89 -8 -8 -74 39 -109 78 -19 22 -47 62 -61 90 -14
28 -32 53 -40 57 -21 7 -65 -23 -65 -45 1 -31 46 -126 103 -217 141 -223 173
-254 255 -255 37 0 45 4 62 33 22 35 28 153 11 186 -5 9 -46 138 -91 287 -123
408 -206 605 -352 835 -29 47 -82 148 -117 225 -119 260 -241 491 -337 635
-71 108 -100 162 -116 215 -14 50 -37 95 -80 154 -33 46 -79 123 -104 171 -39
78 -718 1112 -797 1214 -155 199 -216 249 -323 261 l-50 6 -178 -393 c-215
-473 -228 -500 -323 -657 -142 -234 -226 -435 -357 -849 -90 -283 -106 -346
-266 -1075 -100 -454 -153 -664 -171 -683 -12 -12 -12 81 1 258 12 167 30 283
75 487 19 85 59 270 90 410 100 459 165 693 257 925 50 127 111 241 238 446
206 333 238 440 161 545 -15 22 -51 52 -79 67 l-52 28 -43 -30 c-180 -123
-347 -418 -580 -1021 -41 -107 -138 -355 -215 -550 -77 -195 -147 -391 -157
-435 -10 -44 -31 -116 -47 -160 -41 -111 -89 -311 -138 -569 -22 -120 -46
-228 -52 -239 l-11 -21 -8 22 c-16 43 20 302 77 562 14 63 54 203 89 310 35
107 100 312 144 455 171 555 234 711 422 1041 164 288 233 448 240 559 l4 49
-63 14 c-35 8 -67 10 -71 6 -16 -18 -551 -1244 -590 -1351 -22 -62 -61 -183
-85 -270 -25 -87 -75 -252 -111 -368 -118 -379 -110 -329 -257 -1482 -6 -51
-15 -93 -20 -93 -14 0 -44 81 -57 153 -16 95 -14 367 4 538 37 331 131 792
232 1129 78 261 316 817 549 1281 136 272 174 361 174 405 0 17 -11 29 -40 44
-21 11 -44 20 -49 20 -49 0 -301 -510 -545 -1103 -275 -668 -389 -1180 -464
-2072 -8 -102 -16 -110 -72 -73 -208 140 -207 609 1 1501 22 93 44 214 50 270
11 96 19 121 146 437 162 403 199 481 348 719 124 199 163 274 172 327 5 32 4
34 -24 34 -53 0 -125 -28 -160 -62 -25 -23 -80 -125 -190 -348 -247 -503 -274
-572 -368 -954 -145 -591 -197 -853 -229 -1166 -16 -147 -53 -301 -75 -308
-20 -7 -76 38 -109 87 -141 206 -81 800 150 1486 147 439 221 569 481 843 75
79 116 145 117 186 0 17 -6 18 -65 13 -77 -7 -137 -32 -189 -77 -39 -35 -161
-211 -177 -258 -8 -22 -21 -32 -60 -44 -58 -19 -57 -27 -8 102 37 97 77 160
150 236 67 70 83 103 69 138 -29 79 -149 54 -229 -48 -63 -79 -247 -470 -347
-738 -138 -367 -290 -1020 -326 -1397 l-12 -133 -96 7 c-52 4 -98 9 -102 12
-16 9 -8 260 12 396 72 489 327 1159 601 1577 143 219 189 327 189 442 0 34
-23 37 -79 9 -75 -39 -105 -88 -318 -519 l-206 -416 -159 -596 c-87 -327 -160
-601 -163 -608 -6 -17 -82 41 -97 74 -7 15 -7 59 0 141 12 133 67 323 173 600
32 84 77 212 100 285 53 168 105 291 229 538 114 227 140 297 140 378 0 63
-29 124 -62 130 -28 5 -130 -212 -308 -658 -128 -321 -133 -334 -296 -910 -85
-300 -159 -559 -164 -575 -10 -29 -14 -31 -111 -51 l-102 -20 6 70 c13 168
111 505 239 825 103 256 162 374 293 591 148 244 219 388 220 449 0 41 -2 45
-30 53 -16 5 -69 9 -117 10 -123 1 -157 -18 -225 -119 -112 -168 -344 -686
-468 -1044 -19 -57 -44 -122 -54 -144 -10 -22 -24 -67 -31 -100 -7 -33 -46
-141 -86 -240 -162 -404 -214 -602 -214 -823 l0 -99 -101 -134 c-55 -74 -124
-158 -152 -188 -55 -56 -123 -111 -140 -111 -12 0 -3 49 38 200 19 69 46 186
60 260 128 662 435 1475 760 2015 118 195 157 272 190 369 23 69 33 164 19
179 -11 11 -77 -22 -113 -56 -18 -18 -52 -70 -74 -117 -22 -47 -41 -87 -43
-89 -1 -2 -34 11 -72 29 l-70 32 -71 -42 -71 -42 -55 33 c-30 18 -73 49 -95
68 l-42 36 35 40 c43 50 104 84 243 135 155 58 200 95 234 195 60 181 80 373
80 790 l0 322 120 56 121 56 -3 113 -3 113 -90 13 c-49 8 -100 16 -111 18 -28
5 -46 44 -79 174 -32 122 -75 224 -112 262 -21 22 -29 25 -52 17 -50 -18 -74
-45 -80 -89 l-6 -41 -59 71 c-58 71 -106 110 -136 110 -9 0 -26 -7 -38 -16z
m4992 -2257 c28 -16 43 -34 56 -69 10 -25 27 -60 39 -76 39 -55 22 -47 -50 23
-59 58 -99 114 -99 140 0 10 15 5 54 -18z m-5644 -789 c-139 -293 -308 -645
-376 -783 -134 -272 -230 -492 -361 -825 -281 -712 -493 -1398 -493 -1596 0
-24 -4 -44 -8 -44 -4 0 -26 18 -47 41 -43 44 -83 69 -102 62 -6 -2 -14 1 -18
6 -3 6 -2 11 4 11 15 0 46 105 175 587 147 549 208 747 313 1018 357 920 551
1321 786 1628 43 56 103 140 134 187 31 47 70 103 87 124 30 39 145 130 153
122 3 -3 -109 -245 -247 -538z m670 472 c0 -39 -121 -292 -275 -575 -206 -378
-334 -673 -697 -1600 -107 -274 -224 -657 -293 -960 -15 -66 -54 -205 -87
-310 -82 -262 -107 -385 -128 -638 -6 -67 -15 -139 -21 -159 -9 -37 -49 -78
-75 -78 -28 0 -15 94 36 261 67 215 66 213 95 477 14 125 33 270 41 322 43
255 320 1158 526 1710 310 836 578 1337 811 1522 49 38 67 46 67 28z m-993
-371 c-6 -45 -12 -56 -52 -91 -38 -33 -60 -71 -136 -227 -273 -559 -388 -818
-490 -1101 -34 -96 -113 -312 -175 -480 -137 -374 -131 -353 -254 -859 -55
-227 -106 -425 -113 -440 -11 -24 -18 -26 -80 -29 -39 -2 -67 1 -67 7 0 78 57
334 125 566 260 882 730 1986 1051 2470 64 98 176 235 191 235 3 0 3 -23 0
-51z m1024 -240 c-26 -90 -66 -200 -165 -453 -97 -247 -129 -351 -321 -1036
-157 -560 -246 -859 -279 -934 -13 -29 -46 -87 -74 -127 -27 -41 -59 -93 -71
-116 -17 -34 -62 -73 -84 -73 -2 0 11 53 29 118 18 64 63 245 100 402 91 391
154 594 382 1220 175 481 243 642 363 862 59 109 128 213 135 205 2 -2 -5 -32
-15 -68z m1557 -381 c-19 -232 -107 -910 -127 -984 l-8 -29 -13 25 c-7 14 -26
36 -43 50 l-29 26 11 154 c31 407 96 700 181 820 12 17 25 30 29 30 4 0 3 -42
-1 -92z m-3269 -104 c-30 -160 -153 -426 -224 -484 -17 -14 -17 -12 -10 20 4
19 42 107 84 195 42 88 92 195 111 237 19 43 38 77 41 78 4 0 3 -21 -2 -46z
m2060 -116 c-9 -74 -20 -116 -103 -408 -116 -406 -120 -417 -151 -417 -23 0
-23 1 -20 81 2 44 13 117 25 161 30 114 117 374 186 553 48 125 60 148 65 128
4 -14 3 -58 -2 -98z m5271 -229 c74 -98 90 -134 90 -196 0 -29 -4 -53 -8 -53
-20 0 -65 64 -112 158 -47 97 -59 140 -43 155 13 14 22 6 73 -64z m-5250 -354
c0 -28 -4 -35 -20 -35 -11 0 -20 3 -20 6 0 7 33 64 37 64 2 0 3 -16 3 -35z
m281 -66 c9 -5 19 -20 22 -35 4 -25 3 -26 -32 -20 -20 3 -43 6 -52 6 -12 0
-15 7 -12 24 3 13 0 27 -6 30 -41 26 32 21 80 -5z m722 -260 c7 -12 5 -21 -11
-37 l-20 -20 -6 21 c-10 40 -7 59 10 55 9 -2 21 -10 27 -19z m-2683 -155 c-13
-84 -34 -163 -112 -414 -33 -107 -79 -280 -103 -385 -90 -395 -193 -776 -254
-941 -37 -101 -82 -194 -95 -194 -17 0 2 173 38 341 83 384 303 1106 460 1507
31 79 59 148 62 154 13 21 14 -2 4 -68z m2218 2 c59 -65 145 -208 211 -348 51
-110 63 -138 56 -138 -2 0 -81 113 -175 250 -129 189 -170 255 -165 270 3 11
10 20 15 20 4 0 30 -24 58 -54z m-220 -44 c7 -5 27 -40 46 -78 61 -127 235
-404 526 -839 204 -304 457 -752 485 -860 13 -51 13 -64 -2 -126 -9 -38 -19
-69 -23 -69 -20 0 -86 72 -112 124 -17 33 -43 79 -58 101 -15 22 -65 114 -110
205 -45 91 -135 246 -200 345 -113 173 -198 327 -241 438 -11 29 -42 86 -69
127 -27 41 -70 129 -97 195 -26 66 -61 145 -79 175 -17 30 -52 91 -78 135 -59
101 -60 123 -6 134 3 0 11 -3 18 -7z m-1610 -149 c-29 -271 -265 -1230 -345
-1403 -21 -47 -26 -52 -33 -35 -35 84 24 425 145 845 81 278 217 670 234 670
4 0 3 -35 -1 -77z m2612 -1 c33 -24 67 -94 76 -157 l6 -50 -32 30 c-29 27
-130 183 -130 200 0 11 52 -4 80 -23z m-240 -87 c30 -15 34 -23 45 -89 7 -39
6 -39 -16 -24 -33 22 -58 58 -65 96 -7 36 -4 38 36 17z m-155 -374 c34 -76
-11 -68 -50 8 -31 63 -31 65 3 47 16 -8 36 -32 47 -55z m801 -67 c3 -17 4 -42
2 -56 -3 -25 -4 -25 -38 -14 -28 9 -41 22 -63 66 -36 71 -33 93 13 100 32 5
37 2 57 -30 13 -19 26 -49 29 -66z m-409 65 c44 -16 110 -87 160 -173 29 -48
88 -123 151 -189 56 -60 114 -131 127 -157 19 -38 55 -151 55 -174 0 -12 -74
31 -126 73 -66 53 -146 157 -224 296 -35 61 -82 142 -105 180 -60 99 -87 155
-76 155 5 0 22 -5 38 -11z m-4114 -212 c-4 -18 -16 -33 -36 -43 l-30 -16 33
46 c19 25 34 45 36 43 1 -1 0 -15 -3 -30z m-458 -577 c20 -39 19 -69 -5 -105
l-19 -29 -14 33 c-12 29 -12 40 1 82 9 27 17 49 19 49 1 0 9 -13 18 -30z
m5202 -65 c34 -63 32 -72 -9 -56 -18 7 -30 24 -42 57 -20 60 -20 66 2 62 9 -2
31 -30 49 -63z m-4327 -275 c0 -34 -40 -372 -45 -380 -2 -4 -24 -10 -47 -13
-24 -4 -57 -9 -75 -13 l-32 -6 10 38 c6 22 33 107 60 189 42 124 56 155 82
177 38 33 47 34 47 8z m-394 -235 c-23 -53 -28 -40 -14 36 11 61 12 62 21 33
6 -22 5 -41 -7 -69z m902 -353 c-6 -77 -39 -160 -89 -223 -49 -63 -64 -66
-104 -26 -28 28 -35 43 -35 73 0 39 45 191 62 209 9 10 102 31 147 34 23 1 24
0 19 -67z m-471 -47 c12 -9 30 -40 39 -69 l17 -54 -39 -46 c-21 -25 -42 -46
-46 -46 -11 0 -64 81 -76 119 -7 19 -12 51 -12 72 l0 39 48 0 c26 0 57 -7 69
-15z m-306 -83 c92 -59 164 -177 174 -287 8 -76 -2 -92 -41 -72 -76 40 -224
247 -224 312 0 81 20 91 91 47z m4067 -116 c22 -14 60 -49 84 -78 23 -28 78
-88 120 -133 l78 -81 -7 -52 c-3 -29 -10 -52 -15 -52 -5 0 -23 7 -40 16 -17 9
-55 19 -85 23 l-53 8 0 -31 c0 -25 43 -267 55 -312 2 -7 28 -15 57 -19 29 -4
58 -11 64 -16 6 -5 26 -39 44 -75 19 -37 52 -82 77 -104 42 -37 43 -38 43
-103 l0 -66 -37 5 c-45 7 -93 24 -93 33 0 24 -113 128 -193 177 -51 31 -93 58
-95 59 -3 3 -71 783 -72 819 0 21 11 18 68 -18z m-3132 -129 c-8 -20 -27 -42
-43 -50 -34 -18 -103 -32 -103 -22 0 16 93 146 123 171 l32 27 3 -46 c2 -25
-4 -61 -12 -80z m-363 -79 c53 -95 95 -174 93 -176 -2 -2 -27 -9 -56 -17 -37
-10 -60 -11 -79 -4 -59 23 -111 97 -136 196 l-16 62 42 56 c23 30 44 55 48 55
4 0 50 -77 104 -172z m-673 -24 c17 -15 49 -52 70 -84 l39 -57 -14 -69 c-12
-55 -22 -75 -52 -106 -20 -21 -42 -38 -49 -38 -27 0 -69 231 -58 315 10 76 15
80 64 39z m389 -134 c82 -41 137 -111 156 -197 6 -32 6 -32 -22 -23 -15 6 -57
25 -93 43 -49 24 -69 41 -82 67 -19 38 -24 130 -8 130 6 0 28 -9 49 -20z m665
14 c16 -6 23 -64 9 -64 -16 0 -35 18 -48 43 -13 25 -12 27 5 27 10 0 25 -3 34
-6z m3816 -14 c58 -30 83 -71 82 -137 0 -30 -4 -59 -9 -64 -5 -5 -29 -12 -55
-15 l-46 -6 -27 46 c-35 60 -43 122 -21 164 19 38 24 38 76 12z m-3930 -158
c27 -20 70 -96 70 -124 0 -15 -9 -18 -58 -18 -83 0 -95 12 -102 100 -3 39 -4
73 -2 75 7 6 67 -15 92 -33z m-750 -79 c0 -5 30 -33 65 -63 62 -52 65 -56 59
-90 -4 -19 -12 -38 -18 -42 -6 -4 -66 -8 -134 -8 -138 0 -134 -3 -94 75 37 73
121 161 122 128z m4610 -112 c0 -73 -8 -88 -46 -95 -42 -8 -74 8 -74 37 0 36
45 111 71 118 35 9 49 -8 49 -60z m157 -211 c18 -11 35 -31 39 -45 7 -28 1
-122 -9 -131 -3 -3 -32 7 -64 23 -67 32 -79 55 -69 126 7 45 9 47 39 47 18 0
47 -9 64 -20z m-166 -229 c25 -28 40 -55 47 -88 6 -26 9 -49 7 -51 -2 -2 -27
4 -55 13 -60 20 -78 44 -87 114 -6 51 -6 51 22 51 20 0 39 -12 66 -39z m-4520
-675 c120 -26 179 -72 179 -140 0 -45 -106 -62 -164 -26 -18 10 -62 55 -99
100 l-68 80 43 0 c24 0 73 -7 109 -14z"/>
<path d="M8500 6783 c-81 -30 -130 -177 -116 -353 13 -165 54 -418 76 -467 41
-93 92 -122 212 -123 77 0 78 0 94 33 50 96 63 258 40 512 -9 99 -16 200 -16
224 l0 44 -87 -7 c-48 -4 -92 -8 -98 -9 -6 -1 -9 21 -7 60 l3 62 -37 16 c-39
16 -41 16 -64 8z"/>
<path d="M4180 4780 c-42 -8 -89 -31 -112 -57 -41 -44 -82 -192 -102 -360 -11
-94 -20 -124 -50 -183 -20 -40 -36 -73 -36 -76 0 -9 59 -32 113 -43 31 -7 57
-14 57 -16 0 -35 25 -166 36 -187 14 -27 79 -78 99 -78 22 0 79 67 106 125 68
144 61 396 -20 710 -16 61 -35 124 -42 141 -13 27 -17 30 -49 24z"/>
<path d="M10793 4663 c-29 -70 -130 -296 -221 -493 -340 -741 -642 -1644 -642
-1922 0 -65 -1 -69 -20 -63 -12 4 -31 0 -45 -9 -13 -9 -27 -16 -31 -16 -3 0
-3 44 1 98 9 121 139 648 221 892 86 256 233 607 439 1045 42 89 95 218 95
230 0 13 -68 3 -104 -15 -56 -27 -88 -78 -204 -325 -157 -333 -247 -565 -351
-905 -92 -301 -98 -325 -141 -516 -55 -244 -79 -395 -86 -549 l-7 -130 67 -39
c37 -21 66 -40 64 -41 -2 -1 -21 -12 -44 -23 l-40 -21 -53 69 c-29 38 -68 79
-87 91 -19 11 -45 40 -57 63 -20 37 -22 55 -22 181 1 123 5 155 33 268 60 242
152 491 379 1027 168 396 239 575 268 677 25 86 33 173 16 173 -18 0 -80 -75
-126 -152 -225 -379 -548 -1251 -661 -1786 -23 -108 -28 -161 -33 -353 l-6
-225 -40 -53 c-40 -52 -90 -91 -116 -91 -8 1 -27 7 -44 14 l-30 13 62 27 c68
31 87 48 96 86 3 14 15 133 27 265 26 305 38 372 104 602 113 389 259 791 383
1058 99 211 133 314 133 399 0 63 -19 126 -39 126 -15 0 -49 -45 -84 -110 -67
-123 -140 -312 -297 -760 -38 -107 -91 -255 -119 -329 -113 -295 -178 -551
-236 -925 -35 -225 -42 -253 -68 -260 -38 -10 -87 -7 -116 8 -71 37 -151 164
-151 240 0 96 29 284 121 776 14 76 44 177 89 300 38 102 109 295 158 430 55
151 124 313 176 419 72 146 86 181 86 222 0 49 -26 119 -43 119 -17 0 -83 -76
-122 -140 -21 -34 -80 -152 -131 -263 -52 -110 -97 -203 -100 -206 -15 -14 10
81 48 179 60 156 148 445 148 484 0 9 -93 7 -106 -2 -5 -4 -27 -37 -47 -74
-39 -70 -83 -128 -97 -128 -5 0 -23 14 -40 32 -30 30 -32 35 -25 82 3 27 13
62 22 77 14 24 14 31 -2 78 -9 28 -21 51 -26 51 -47 0 -166 -123 -240 -247
-28 -49 -86 -160 -129 -248 -42 -88 -102 -198 -134 -243 -155 -227 -246 -494
-306 -897 -11 -71 -34 -269 -51 -440 -17 -170 -36 -320 -40 -333 -5 -13 -26
-30 -49 -40 -22 -9 -51 -32 -64 -51 -30 -40 -24 -59 31 -104 59 -51 67 -76 68
-227 1 -128 2 -138 30 -195 l29 -60 -2 -280 c-3 -310 5 -387 54 -496 l28 -61
39 6 c54 9 92 30 121 68 55 73 58 175 12 420 -26 138 -83 645 -73 654 3 3 29
-2 58 -11 59 -18 49 -5 192 -227 l69 -107 -25 -63 c-72 -183 -78 -406 -10
-433 78 -31 406 -22 873 26 236 24 340 30 460 27 148 -3 157 -4 203 -31 170
-98 174 -99 226 -51 66 59 73 111 28 213 -20 44 -20 63 -21 566 0 417 3 552
17 680 41 394 118 693 279 1080 78 188 211 457 261 527 47 66 110 185 147 278
29 73 32 160 6 189 -11 12 -22 21 -27 21 -17 0 -71 -100 -114 -210 -25 -66
-65 -147 -87 -182 -79 -122 -118 -188 -118 -202 0 -8 -42 -97 -93 -197 -201
-399 -267 -615 -356 -1175 -17 -105 -40 -227 -52 -270 -33 -128 -34 -189 -5
-410 14 -110 26 -244 26 -298 0 -99 -24 -236 -41 -236 -24 0 -90 43 -115 75
-34 46 -29 84 25 174 67 112 66 130 -11 151 -37 11 -36 9 -75 115 -21 58 -18
212 7 334 11 56 43 177 71 269 28 92 82 271 119 397 104 350 146 454 438 1095
210 461 226 503 219 581 -4 49 -38 139 -53 139 -3 0 -12 -17 -21 -37z m-2013
-690 c-18 -70 -68 -240 -112 -378 -114 -353 -155 -489 -178 -575 -45 -177 -88
-461 -126 -845 -20 -199 -30 -236 -67 -246 -32 -9 -31 -33 -17 261 37 781 60
928 205 1309 70 185 95 235 193 398 49 81 97 163 107 181 29 59 28 27 -5 -105z
m285 -230 c-25 -116 -59 -227 -136 -437 -38 -104 -83 -239 -99 -300 -56 -212
-105 -558 -116 -832 l-7 -150 51 -33 c59 -38 103 -85 131 -140 19 -37 19 -38
1 -66 -10 -15 -46 -54 -81 -86 -50 -46 -66 -56 -75 -46 -41 42 -264 302 -264
307 0 3 28 22 63 43 35 22 74 55 87 75 25 35 25 38 25 256 0 205 2 231 28 349
85 390 254 891 365 1084 20 34 38 61 40 58 2 -2 -3 -39 -13 -82z m545 -1950
c2 -2 -6 -24 -19 -49 -38 -71 -217 -231 -237 -211 -3 2 0 24 5 47 6 29 20 51
40 67 17 13 54 55 82 94 51 68 53 69 88 63 20 -4 38 -9 41 -11z m414 -79 c-3
-28 -50 -84 -71 -84 -7 0 -28 14 -48 31 -34 30 -35 33 -19 50 10 11 34 19 63
22 25 2 53 4 62 5 12 2 15 -5 13 -24z m-924 -76 c11 -24 20 -50 20 -58 0 -19
-72 -107 -113 -137 -70 -52 -144 -11 -134 74 8 75 71 135 159 152 24 5 44 9
46 10 2 1 12 -18 22 -41z m675 -69 c21 -28 34 -54 29 -58 -71 -66 -167 -112
-256 -125 l-48 -7 7 33 c8 43 36 98 61 121 24 22 142 86 159 87 6 0 28 -23 48
-51z m-523 -136 c39 -35 14 -71 -71 -103 -28 -11 -51 -17 -51 -14 0 11 61 94
69 94 5 0 11 9 14 20 6 24 15 25 39 3z m765 -95 c24 -34 39 -66 35 -70 -5 -5
-42 -15 -83 -24 -81 -17 -301 -15 -334 4 -16 8 -13 13 21 36 55 37 259 113
309 115 6 0 29 -27 52 -61z m-1230 -6 c18 -20 38 -50 44 -66 11 -25 10 -30 -7
-43 -10 -8 -35 -13 -54 -11 -44 4 -60 33 -60 111 0 56 1 58 23 52 12 -4 37
-23 54 -43z"/>
<path d="M11359 4675 c-18 -10 -34 -37 -58 -102 -18 -48 -73 -162 -121 -253
-328 -614 -420 -849 -596 -1535 -118 -460 -129 -529 -100 -627 16 -56 69 -118
101 -118 7 0 21 21 31 46 16 43 16 50 1 117 -33 140 -19 239 90 617 135 474
209 679 343 947 78 156 136 239 209 299 l34 28 -7 -48 c-12 -80 -43 -186 -102
-353 -79 -223 -106 -306 -158 -486 -59 -203 -129 -392 -170 -460 l-33 -54 -9
-214 c-12 -280 -10 -330 14 -479 34 -203 49 -410 77 -1025 9 -187 20 -389 25
-450 15 -166 15 -165 -18 -165 -94 0 -245 66 -396 173 -122 86 -223 138 -304
157 -67 16 -85 10 -156 -45 -67 -52 -92 -60 -236 -75 -105 -11 -188 -26 -415
-74 -152 -33 -312 -34 -550 -5 -101 12 -283 24 -450 29 -258 8 -287 10 -373
35 -131 37 -271 92 -310 121 l-33 26 -75 -17 c-42 -9 -78 -14 -81 -12 -4 5
-157 928 -190 1152 -13 91 -15 176 -12 485 7 733 4 817 -37 920 -15 37 -16 38
-49 27 -25 -7 -37 -18 -44 -41 -6 -17 -15 -286 -22 -601 -9 -491 -9 -613 5
-882 15 -297 21 -593 12 -593 -3 0 -42 9 -88 20 -260 63 -436 24 -648 -144
-92 -74 -131 -94 -217 -116 -72 -18 -85 -36 -90 -121 l-5 -74 31 -18 c17 -10
72 -56 121 -102 106 -99 153 -128 238 -150 75 -20 81 -17 123 66 l29 58 67
-20 c76 -21 113 -22 192 -6 l54 12 62 118 c53 100 70 124 111 153 26 19 53 34
61 34 21 0 16 -161 -8 -287 -23 -121 -21 -171 10 -236 46 -95 124 -148 227
-155 l60 -4 42 90 42 89 52 -9 c62 -11 139 -44 200 -86 24 -16 62 -39 84 -50
l42 -21 83 59 c46 33 86 60 89 60 6 0 99 -75 232 -187 89 -75 125 -95 191
-107 l37 -7 0 38 c-1 63 -17 114 -46 144 -15 16 -24 29 -18 29 5 0 88 9 184
21 333 39 762 36 1150 -7 218 -24 303 -41 462 -95 163 -55 186 -56 239 -12 41
35 89 44 189 37 107 -8 161 6 218 56 24 21 70 56 103 77 l59 38 0 60 c0 96
-18 260 -61 564 -46 329 -64 522 -78 856 -6 132 -16 344 -21 472 -19 433 9
581 205 1088 51 132 105 280 120 328 24 80 134 332 173 399 8 14 26 31 38 37
26 11 13 26 214 -249 92 -126 72 -81 335 -750 143 -364 196 -514 221 -628 25
-115 22 -112 109 -112 63 0 75 3 75 17 0 52 -201 675 -325 1009 -37 98 -109
267 -160 374 -51 107 -107 232 -124 277 -18 44 -44 96 -57 114 -35 48 -97 86
-162 100 -31 7 -59 14 -62 16 -2 2 -7 25 -10 51 l-5 47 -79 39 -78 38 6 78 c6
62 4 85 -9 109 -17 34 -28 37 -66 16z m-4301 -3671 l44 -5 -7 -52 c-8 -57 -21
-86 -60 -132 -25 -30 -26 -30 -117 -29 -142 2 -211 34 -273 127 l-35 52 35 18
c20 10 61 22 93 27 55 8 232 5 320 -6z m3290 -523 c31 -16 63 -39 70 -50 12
-20 10 -21 -49 -21 -58 0 -64 2 -96 37 l-35 36 24 13 c12 7 24 13 26 14 1 0
28 -13 60 -29z"/>
<path d="M11732 4591 c-20 -12 -42 -107 -32 -139 11 -38 42 -102 50 -102 4 0
7 6 7 13 0 24 46 88 60 85 9 -2 117 -223 258 -528 133 -289 272 -586 307 -660
83 -171 140 -323 216 -570 92 -299 131 -390 167 -390 49 0 43 126 -14 297 -22
65 -45 138 -51 163 -7 25 -40 106 -75 180 -76 163 -112 251 -265 660 -160 428
-210 549 -291 717 -100 208 -178 283 -294 283 -16 0 -36 -4 -43 -9z"/>
<path d="M9658 4310 c-45 -24 -47 -27 -64 -101 -8 -33 -25 -82 -39 -109 -71
-140 -351 -778 -386 -879 -63 -181 -96 -333 -139 -631 -22 -151 -46 -319 -54
-372 -18 -117 -10 -151 36 -167 17 -6 45 -11 63 -11 30 0 33 3 39 38 3 20 6
99 6 175 0 115 5 159 29 270 16 72 41 191 56 262 71 352 235 788 413 1096 33
57 72 133 87 169 35 82 44 188 22 243 -18 43 -19 43 -69 17z"/>
<path d="M11406 3585 c-17 -18 -20 -56 -16 -225 4 -242 71 -490 147 -550 43
-33 95 -27 141 18 33 31 41 46 47 90 13 99 -23 363 -66 478 -22 57 -103 155
-148 178 -47 25 -87 29 -105 11z"/>
<path d="M4035 2878 c-142 -21 -367 -60 -380 -64 -26 -10 -35 -67 -35 -213 0
-80 -5 -180 -11 -222 -13 -84 -6 -161 18 -184 11 -12 22 -71 39 -203 51 -414
57 -506 60 -912 2 -217 6 -405 9 -417 6 -27 53 -53 94 -53 65 0 273 -32 389
-60 68 -17 142 -30 165 -30 86 0 131 51 228 257 33 69 61 124 64 121 2 -2 -2
-87 -10 -187 -9 -101 -12 -200 -9 -220 14 -74 54 -130 117 -162 l38 -20 19 45
c11 24 25 68 31 98 20 94 12 419 -17 713 -22 233 -27 342 -34 800 -5 292 -11
550 -14 575 -3 25 -13 106 -22 180 -9 74 -20 139 -24 144 -18 18 -93 24 -133
10 -52 -18 -171 -18 -233 1 -55 17 -249 19 -349 3z m-165 -300 c0 -13 -6 -18
-17 -16 -13 2 -19 14 -21 43 l-2 40 20 -24 c11 -13 20 -32 20 -43z m784 -191
l7 -154 -52 -119 c-28 -65 -54 -122 -58 -125 -3 -4 -82 22 -175 56 -119 43
-170 67 -172 78 -3 23 69 23 171 0 82 -18 119 -12 182 26 l32 20 -16 46 c-13
39 -23 51 -65 73 -27 15 -70 40 -96 56 l-47 28 70 36 c39 19 90 51 115 72 44
36 79 59 91 60 3 0 9 -69 13 -153z m-686 -337 c234 -68 354 -142 396 -242 l15
-36 -67 15 c-301 68 -410 105 -444 153 -22 32 -37 140 -18 140 7 0 60 -14 118
-30z"/>
<path d="M11628 2313 c-23 -6 -24 -7 -49 -298 -33 -380 -36 -804 -10 -1175 12
-162 21 -302 21 -310 0 -9 -13 -23 -28 -32 -46 -27 -256 -197 -275 -223 -17
-22 -43 -142 -34 -152 3 -2 28 5 56 16 57 21 127 69 216 147 l61 53 219 17
c121 9 223 20 228 24 4 3 12 49 19 101 6 52 19 110 29 130 28 56 117 129 281
227 l36 23 21 -54 c15 -42 61 -245 61 -272 0 -2 -7 -2 -17 2 -13 5 -15 2 -10
-18 4 -13 7 -27 7 -31 0 -18 20 -6 20 12 0 21 16 28 22 10 2 -6 12 -4 25 5 69
48 70 293 4 670 -49 276 -61 445 -61 833 l0 282 -27 -6 c-59 -14 -93 -34 -103
-59 -6 -17 -6 -147 1 -378 10 -326 13 -367 45 -555 19 -112 34 -210 34 -217 0
-7 -45 -49 -100 -93 -94 -77 -190 -131 -254 -146 l-29 -7 6 63 c15 141 20 705
8 862 -14 187 -41 358 -73 453 l-23 68 -66 6 c-36 4 -83 12 -105 18 -39 11
-123 13 -156 4z"/>
</g>
</svg>
